<?xml version="1.0" encoding="UTF-8"?>
<svg xmlns="http://www.w3.org/2000/svg" xmlns:xlink="http://www.w3.org/1999/xlink" width="375pt" height="374.999991pt" viewBox="0 0 375 374.999991" version="1.2">
<defs>
<clipPath id="clip1">
  <path d="M 0 211 L 164 211 L 164 374.4375 L 0 374.4375 Z M 0 211 "/>
</clipPath>
<clipPath id="clip2">
  <path d="M 211 0.9375 L 375 0.9375 L 375 165 L 211 165 Z M 211 0.9375 "/>
</clipPath>
<clipPath id="clip3">
  <path d="M 211 211 L 375 211 L 375 374.4375 L 211 374.4375 Z M 211 211 "/>
</clipPath>
</defs>
<g id="surface1">
<path style=" stroke:none;fill-rule:nonzero;fill:rgb(100%,100%,100%);fill-opacity:1;" d="M 163.957031 83.035156 C 163.957031 84.371094 163.925781 85.707031 163.859375 87.039062 C 163.792969 88.375 163.695312 89.707031 163.566406 91.035156 C 163.433594 92.363281 163.273438 93.6875 163.074219 95.007812 C 162.878906 96.328125 162.652344 97.644531 162.390625 98.953125 C 162.132812 100.265625 161.839844 101.566406 161.515625 102.863281 C 161.191406 104.15625 160.835938 105.445312 160.449219 106.722656 C 160.0625 108 159.644531 109.265625 159.195312 110.523438 C 158.742188 111.78125 158.265625 113.027344 157.753906 114.261719 C 157.242188 115.496094 156.703125 116.714844 156.132812 117.921875 C 155.5625 119.128906 154.960938 120.320312 154.332031 121.5 C 153.703125 122.675781 153.046875 123.839844 152.363281 124.984375 C 151.675781 126.128906 150.960938 127.257812 150.222656 128.367188 C 149.480469 129.476562 148.710938 130.570312 147.917969 131.640625 C 147.121094 132.714844 146.300781 133.765625 145.457031 134.796875 C 144.609375 135.832031 143.738281 136.839844 142.84375 137.832031 C 141.945312 138.820312 141.027344 139.785156 140.085938 140.730469 C 139.140625 141.675781 138.175781 142.59375 137.1875 143.492188 C 136.199219 144.390625 135.1875 145.261719 134.15625 146.109375 C 133.125 146.957031 132.074219 147.777344 131.003906 148.570312 C 129.933594 149.367188 128.839844 150.136719 127.734375 150.878906 C 126.625 151.621094 125.496094 152.335938 124.351562 153.019531 C 123.207031 153.707031 122.046875 154.363281 120.871094 154.996094 C 119.695312 155.625 118.503906 156.222656 117.296875 156.796875 C 116.09375 157.367188 114.871094 157.90625 113.640625 158.417969 C 112.40625 158.929688 111.164062 159.410156 109.90625 159.859375 C 108.652344 160.308594 107.386719 160.726562 106.109375 161.117188 C 104.832031 161.503906 103.546875 161.859375 102.253906 162.183594 C 100.960938 162.507812 99.65625 162.800781 98.351562 163.0625 C 97.042969 163.320312 95.726562 163.550781 94.40625 163.746094 C 93.089844 163.941406 91.765625 164.105469 90.4375 164.234375 C 89.109375 164.367188 87.78125 164.464844 86.449219 164.53125 C 85.113281 164.597656 83.78125 164.628906 82.449219 164.628906 C 81.113281 164.628906 79.78125 164.597656 78.449219 164.53125 C 77.117188 164.464844 75.785156 164.367188 74.457031 164.234375 C 73.132812 164.105469 71.808594 163.941406 70.488281 163.746094 C 69.167969 163.550781 67.855469 163.320312 66.546875 163.0625 C 65.238281 162.800781 63.9375 162.507812 62.640625 162.183594 C 61.347656 161.859375 60.0625 161.503906 58.785156 161.117188 C 57.511719 160.726562 56.242188 160.308594 54.988281 159.859375 C 53.730469 159.410156 52.488281 158.929688 51.253906 158.417969 C 50.023438 157.90625 48.804688 157.367188 47.597656 156.796875 C 46.390625 156.222656 45.199219 155.625 44.023438 154.996094 C 42.847656 154.363281 41.6875 153.707031 40.542969 153.019531 C 39.398438 152.335938 38.273438 151.621094 37.164062 150.878906 C 36.054688 150.136719 34.964844 149.367188 33.890625 148.570312 C 32.820312 147.777344 31.769531 146.957031 30.738281 146.109375 C 29.707031 145.261719 28.695312 144.390625 27.707031 143.492188 C 26.71875 142.59375 25.753906 141.675781 24.8125 140.730469 C 23.867188 139.785156 22.949219 138.820312 22.050781 137.832031 C 21.15625 136.839844 20.285156 135.832031 19.441406 134.796875 C 18.59375 133.765625 17.773438 132.714844 16.976562 131.640625 C 16.183594 130.570312 15.414062 129.476562 14.675781 128.367188 C 13.933594 127.257812 13.21875 126.128906 12.535156 124.984375 C 11.847656 123.839844 11.191406 122.675781 10.5625 121.5 C 9.933594 120.320312 9.332031 119.128906 8.761719 117.921875 C 8.191406 116.714844 7.652344 115.496094 7.140625 114.261719 C 6.632812 113.027344 6.152344 111.78125 5.703125 110.523438 C 5.253906 109.265625 4.835938 108 4.449219 106.722656 C 4.058594 105.445312 3.703125 104.15625 3.378906 102.863281 C 3.054688 101.566406 2.765625 100.265625 2.503906 98.953125 C 2.242188 97.644531 2.015625 96.328125 1.820312 95.007812 C 1.625 93.6875 1.460938 92.363281 1.328125 91.035156 C 1.199219 89.707031 1.101562 88.375 1.035156 87.039062 C 0.96875 85.707031 0.9375 84.371094 0.9375 83.035156 C 0.9375 81.703125 0.96875 80.367188 1.035156 79.03125 C 1.101562 77.699219 1.199219 76.367188 1.328125 75.039062 C 1.460938 73.710938 1.625 72.386719 1.820312 71.066406 C 2.015625 69.742188 2.242188 68.429688 2.503906 67.117188 C 2.765625 65.808594 3.054688 64.507812 3.378906 63.210938 C 3.703125 61.914062 4.058594 60.628906 4.449219 59.351562 C 4.835938 58.074219 5.253906 56.804688 5.703125 55.550781 C 6.152344 54.292969 6.632812 53.046875 7.140625 51.8125 C 7.652344 50.578125 8.191406 49.359375 8.761719 48.152344 C 9.332031 46.945312 9.933594 45.75 10.5625 44.574219 C 11.191406 43.398438 11.847656 42.234375 12.535156 41.089844 C 13.21875 39.945312 13.933594 38.816406 14.675781 37.707031 C 15.414062 36.597656 16.183594 35.503906 16.976562 34.433594 C 17.773438 33.359375 18.59375 32.308594 19.441406 31.273438 C 20.285156 30.242188 21.15625 29.230469 22.050781 28.242188 C 22.949219 27.253906 23.867188 26.285156 24.8125 25.34375 C 25.753906 24.398438 26.71875 23.476562 27.707031 22.582031 C 28.695312 21.683594 29.707031 20.8125 30.738281 19.964844 C 31.769531 19.117188 32.820312 18.296875 33.890625 17.5 C 34.964844 16.707031 36.054688 15.9375 37.164062 15.195312 C 38.273438 14.453125 39.398438 13.738281 40.542969 13.050781 C 41.6875 12.367188 42.847656 11.707031 44.023438 11.078125 C 45.199219 10.449219 46.390625 9.847656 47.597656 9.277344 C 48.804688 8.707031 50.023438 8.167969 51.253906 7.65625 C 52.488281 7.144531 53.730469 6.664062 54.988281 6.214844 C 56.242188 5.765625 57.511719 5.34375 58.785156 4.957031 C 60.0625 4.570312 61.347656 4.214844 62.640625 3.890625 C 63.9375 3.566406 65.238281 3.273438 66.546875 3.011719 C 67.855469 2.75 69.167969 2.523438 70.488281 2.328125 C 71.808594 2.132812 73.132812 1.96875 74.457031 1.835938 C 75.785156 1.707031 77.117188 1.609375 78.449219 1.542969 C 79.78125 1.476562 81.113281 1.445312 82.449219 1.445312 C 83.78125 1.445312 85.113281 1.476562 86.449219 1.542969 C 87.78125 1.609375 89.109375 1.707031 90.4375 1.835938 C 91.765625 1.96875 93.089844 2.132812 94.40625 2.328125 C 95.726562 2.523438 97.042969 2.75 98.351562 3.011719 C 99.65625 3.273438 100.960938 3.566406 102.253906 3.890625 C 103.546875 4.214844 104.832031 4.570312 106.109375 4.957031 C 107.386719 5.34375 108.652344 5.765625 109.90625 6.214844 C 111.164062 6.664062 112.40625 7.144531 113.640625 7.65625 C 114.871094 8.167969 116.09375 8.707031 117.296875 9.277344 C 118.503906 9.847656 119.695312 10.449219 120.871094 11.078125 C 122.046875 11.707031 123.207031 12.367188 124.351562 13.050781 C 125.496094 13.738281 126.625 14.453125 127.734375 15.195312 C 128.839844 15.9375 129.933594 16.707031 131.003906 17.5 C 132.074219 18.296875 133.125 19.117188 134.15625 19.964844 C 135.1875 20.8125 136.199219 21.683594 137.1875 22.582031 C 138.175781 23.476562 139.140625 24.398438 140.085938 25.34375 C 141.027344 26.285156 141.945312 27.253906 142.84375 28.242188 C 143.738281 29.230469 144.609375 30.242188 145.457031 31.273438 C 146.300781 32.308594 147.121094 33.359375 147.917969 34.433594 C 148.710938 35.503906 149.480469 36.597656 150.222656 37.707031 C 150.960938 38.816406 151.675781 39.945312 152.363281 41.089844 C 153.046875 42.234375 153.703125 43.398438 154.332031 44.574219 C 154.960938 45.75 155.5625 46.945312 156.132812 48.152344 C 156.703125 49.359375 157.242188 50.578125 157.753906 51.8125 C 158.265625 53.046875 158.742188 54.292969 159.195312 55.550781 C 159.644531 56.804688 160.0625 58.074219 160.449219 59.351562 C 160.835938 60.628906 161.191406 61.914062 161.515625 63.210938 C 161.839844 64.507812 162.132812 65.808594 162.390625 67.117188 C 162.652344 68.429688 162.878906 69.742188 163.074219 71.066406 C 163.273438 72.386719 163.433594 73.710938 163.566406 75.039062 C 163.695312 76.367188 163.792969 77.699219 163.859375 79.03125 C 163.925781 80.367188 163.957031 81.703125 163.957031 83.035156 Z M 163.957031 83.035156 "/>
<g clip-path="url(#clip1)" clip-rule="nonzero">
<path style=" stroke:none;fill-rule:nonzero;fill:rgb(85.099792%,85.099792%,85.099792%);fill-opacity:1;" d="M 163.957031 292.84375 C 163.957031 294.179688 163.925781 295.515625 163.859375 296.847656 C 163.792969 298.183594 163.695312 299.515625 163.566406 300.84375 C 163.433594 302.171875 163.273438 303.496094 163.074219 304.816406 C 162.878906 306.136719 162.652344 307.453125 162.390625 308.761719 C 162.132812 310.074219 161.839844 311.375 161.515625 312.671875 C 161.191406 313.964844 160.835938 315.253906 160.449219 316.53125 C 160.0625 317.808594 159.644531 319.074219 159.195312 320.332031 C 158.742188 321.589844 158.265625 322.835938 157.753906 324.070312 C 157.242188 325.304688 156.703125 326.523438 156.132812 327.730469 C 155.5625 328.9375 154.960938 330.128906 154.332031 331.308594 C 153.703125 332.484375 153.046875 333.648438 152.363281 334.792969 C 151.675781 335.9375 150.960938 337.066406 150.222656 338.175781 C 149.480469 339.285156 148.710938 340.378906 147.917969 341.449219 C 147.121094 342.523438 146.300781 343.574219 145.457031 344.605469 C 144.609375 345.640625 143.738281 346.648438 142.84375 347.640625 C 141.945312 348.628906 141.027344 349.59375 140.085938 350.539062 C 139.140625 351.484375 138.175781 352.40625 137.1875 353.300781 C 136.199219 354.199219 135.1875 355.070312 134.15625 355.917969 C 133.125 356.765625 132.074219 357.585938 131.003906 358.378906 C 129.933594 359.175781 128.839844 359.945312 127.734375 360.6875 C 126.625 361.429688 125.496094 362.144531 124.351562 362.828125 C 123.207031 363.515625 122.046875 364.171875 120.871094 364.804688 C 119.695312 365.433594 118.503906 366.03125 117.296875 366.605469 C 116.09375 367.175781 114.871094 367.714844 113.640625 368.226562 C 112.40625 368.738281 111.164062 369.21875 109.90625 369.667969 C 108.652344 370.117188 107.386719 370.535156 106.109375 370.925781 C 104.832031 371.3125 103.546875 371.667969 102.253906 371.992188 C 100.960938 372.316406 99.65625 372.609375 98.351562 372.871094 C 97.042969 373.128906 95.726562 373.359375 94.40625 373.554688 C 93.089844 373.75 91.765625 373.914062 90.4375 374.042969 C 89.109375 374.175781 87.78125 374.273438 86.449219 374.339844 C 85.113281 374.40625 83.78125 374.4375 82.449219 374.4375 C 81.113281 374.4375 79.78125 374.40625 78.449219 374.339844 C 77.117188 374.273438 75.785156 374.175781 74.457031 374.042969 C 73.132812 373.914062 71.808594 373.75 70.488281 373.554688 C 69.167969 373.359375 67.855469 373.128906 66.546875 372.871094 C 65.238281 372.609375 63.9375 372.316406 62.640625 371.992188 C 61.347656 371.667969 60.0625 371.3125 58.785156 370.925781 C 57.511719 370.535156 56.242188 370.117188 54.988281 369.667969 C 53.730469 369.21875 52.488281 368.738281 51.253906 368.226562 C 50.023438 367.714844 48.804688 367.175781 47.597656 366.605469 C 46.390625 366.03125 45.199219 365.433594 44.023438 364.804688 C 42.847656 364.171875 41.6875 363.515625 40.542969 362.828125 C 39.398438 362.144531 38.273438 361.429688 37.164062 360.6875 C 36.054688 359.945312 34.964844 359.175781 33.890625 358.378906 C 32.820312 357.585938 31.769531 356.765625 30.738281 355.917969 C 29.707031 355.070312 28.695312 354.199219 27.707031 353.300781 C 26.71875 352.40625 25.753906 351.484375 24.8125 350.539062 C 23.867188 349.59375 22.949219 348.628906 22.050781 347.640625 C 21.15625 346.648438 20.285156 345.640625 19.441406 344.605469 C 18.59375 343.574219 17.773438 342.523438 16.976562 341.449219 C 16.183594 340.378906 15.414062 339.285156 14.675781 338.175781 C 13.933594 337.066406 13.21875 335.9375 12.535156 334.792969 C 11.847656 333.648438 11.191406 332.484375 10.5625 331.308594 C 9.933594 330.128906 9.332031 328.9375 8.761719 327.730469 C 8.191406 326.523438 7.652344 325.304688 7.140625 324.070312 C 6.632812 322.835938 6.152344 321.589844 5.703125 320.332031 C 5.253906 319.074219 4.835938 317.808594 4.449219 316.53125 C 4.058594 315.253906 3.703125 313.964844 3.378906 312.671875 C 3.054688 311.375 2.765625 310.074219 2.503906 308.761719 C 2.242188 307.453125 2.015625 306.136719 1.820312 304.816406 C 1.625 303.496094 1.460938 302.171875 1.328125 300.84375 C 1.199219 299.515625 1.101562 298.183594 1.035156 296.847656 C 0.96875 295.515625 0.9375 294.179688 0.9375 292.84375 C 0.9375 291.511719 0.96875 290.175781 1.035156 288.839844 C 1.101562 287.507812 1.199219 286.175781 1.328125 284.847656 C 1.460938 283.519531 1.625 282.195312 1.820312 280.875 C 2.015625 279.550781 2.242188 278.238281 2.503906 276.925781 C 2.765625 275.617188 3.054688 274.316406 3.378906 273.019531 C 3.703125 271.722656 4.058594 270.4375 4.449219 269.160156 C 4.835938 267.882812 5.253906 266.613281 5.703125 265.359375 C 6.152344 264.101562 6.632812 262.855469 7.140625 261.621094 C 7.652344 260.386719 8.191406 259.167969 8.761719 257.960938 C 9.332031 256.753906 9.933594 255.558594 10.5625 254.382812 C 11.191406 253.207031 11.847656 252.042969 12.535156 250.898438 C 13.21875 249.753906 13.933594 248.625 14.675781 247.515625 C 15.414062 246.40625 16.183594 245.3125 16.976562 244.242188 C 17.773438 243.167969 18.59375 242.117188 19.441406 241.082031 C 20.285156 240.050781 21.15625 239.039062 22.050781 238.050781 C 22.949219 237.0625 23.867188 236.09375 24.8125 235.152344 C 25.753906 234.207031 26.71875 233.285156 27.707031 232.390625 C 28.695312 231.492188 29.707031 230.621094 30.738281 229.773438 C 31.769531 228.925781 32.820312 228.105469 33.890625 227.308594 C 34.964844 226.515625 36.054688 225.746094 37.164062 225.003906 C 38.273438 224.261719 39.398438 223.546875 40.542969 222.859375 C 41.6875 222.175781 42.847656 221.515625 44.023438 220.886719 C 45.199219 220.257812 46.390625 219.65625 47.597656 219.085938 C 48.804688 218.515625 50.023438 217.976562 51.253906 217.464844 C 52.488281 216.953125 53.730469 216.472656 54.988281 216.023438 C 56.242188 215.574219 57.511719 215.152344 58.785156 214.765625 C 60.0625 214.378906 61.347656 214.023438 62.640625 213.699219 C 63.9375 213.375 65.238281 213.082031 66.546875 212.820312 C 67.855469 212.558594 69.167969 212.332031 70.488281 212.136719 C 71.808594 211.941406 73.132812 211.777344 74.457031 211.644531 C 75.785156 211.515625 77.117188 211.417969 78.449219 211.351562 C 79.78125 211.285156 81.113281 211.253906 82.449219 211.253906 C 83.78125 211.253906 85.113281 211.285156 86.449219 211.351562 C 87.78125 211.417969 89.109375 211.515625 90.4375 211.644531 C 91.765625 211.777344 93.089844 211.941406 94.40625 212.136719 C 95.726562 212.332031 97.042969 212.558594 98.351562 212.820312 C 99.65625 213.082031 100.960938 213.375 102.253906 213.699219 C 103.546875 214.023438 104.832031 214.378906 106.109375 214.765625 C 107.386719 215.152344 108.652344 215.574219 109.90625 216.023438 C 111.164062 216.472656 112.40625 216.953125 113.640625 217.464844 C 114.871094 217.976562 116.09375 218.515625 117.296875 219.085938 C 118.503906 219.65625 119.695312 220.257812 120.871094 220.886719 C 122.046875 221.515625 123.207031 222.175781 124.351562 222.859375 C 125.496094 223.546875 126.625 224.261719 127.734375 225.003906 C 128.839844 225.746094 129.933594 226.515625 131.003906 227.308594 C 132.074219 228.105469 133.125 228.925781 134.15625 229.773438 C 135.1875 230.621094 136.199219 231.492188 137.1875 232.390625 C 138.175781 233.285156 139.140625 234.207031 140.085938 235.152344 C 141.027344 236.09375 141.945312 237.0625 142.84375 238.050781 C 143.738281 239.039062 144.609375 240.050781 145.457031 241.082031 C 146.300781 242.117188 147.121094 243.167969 147.917969 244.242188 C 148.710938 245.3125 149.480469 246.40625 150.222656 247.515625 C 150.960938 248.625 151.675781 249.753906 152.363281 250.898438 C 153.046875 252.042969 153.703125 253.207031 154.332031 254.382812 C 154.960938 255.558594 155.5625 256.753906 156.132812 257.960938 C 156.703125 259.167969 157.242188 260.386719 157.753906 261.621094 C 158.265625 262.855469 158.742188 264.101562 159.195312 265.359375 C 159.644531 266.613281 160.0625 267.882812 160.449219 269.160156 C 160.835938 270.4375 161.191406 271.722656 161.515625 273.019531 C 161.839844 274.316406 162.132812 275.617188 162.390625 276.925781 C 162.652344 278.238281 162.878906 279.550781 163.074219 280.875 C 163.273438 282.195312 163.433594 283.519531 163.566406 284.847656 C 163.695312 286.175781 163.792969 287.507812 163.859375 288.839844 C 163.925781 290.175781 163.957031 291.511719 163.957031 292.84375 Z M 163.957031 292.84375 "/>
</g>
<g clip-path="url(#clip2)" clip-rule="nonzero">
<path style=" stroke:none;fill-rule:nonzero;fill:rgb(85.099792%,85.099792%,85.099792%);fill-opacity:1;" d="M 374.0625 82.53125 C 374.0625 83.863281 374.03125 85.199219 373.964844 86.535156 C 373.898438 87.867188 373.800781 89.199219 373.671875 90.527344 C 373.539062 91.855469 373.375 93.179688 373.179688 94.5 C 372.984375 95.824219 372.757812 97.136719 372.496094 98.449219 C 372.234375 99.757812 371.945312 101.058594 371.621094 102.355469 C 371.296875 103.648438 370.941406 104.9375 370.550781 106.214844 C 370.164062 107.492188 369.746094 108.761719 369.296875 110.015625 C 368.847656 111.273438 368.367188 112.519531 367.859375 113.753906 C 367.347656 114.988281 366.808594 116.207031 366.238281 117.414062 C 365.667969 118.621094 365.066406 119.8125 364.4375 120.992188 C 363.808594 122.167969 363.152344 123.332031 362.464844 124.476562 C 361.78125 125.621094 361.066406 126.75 360.324219 127.859375 C 359.585938 128.96875 358.816406 130.0625 358.023438 131.132812 C 357.226562 132.207031 356.40625 133.257812 355.558594 134.292969 C 354.714844 135.324219 353.84375 136.335938 352.949219 137.324219 C 352.050781 138.3125 351.132812 139.28125 350.1875 140.222656 C 349.246094 141.167969 348.28125 142.089844 347.292969 142.984375 C 346.300781 143.882812 345.292969 144.753906 344.261719 145.601562 C 343.230469 146.449219 342.179688 147.269531 341.109375 148.066406 C 340.035156 148.859375 338.945312 149.628906 337.835938 150.371094 C 336.726562 151.113281 335.601562 151.828125 334.457031 152.515625 C 333.3125 153.199219 332.152344 153.859375 330.976562 154.488281 C 329.800781 155.117188 328.609375 155.71875 327.402344 156.289062 C 326.195312 156.859375 324.976562 157.398438 323.746094 157.910156 C 322.511719 158.421875 321.269531 158.902344 320.011719 159.351562 C 318.757812 159.800781 317.488281 160.222656 316.214844 160.609375 C 314.9375 160.996094 313.652344 161.351562 312.359375 161.675781 C 311.0625 162 309.761719 162.292969 308.453125 162.554688 C 307.144531 162.816406 305.832031 163.042969 304.511719 163.238281 C 303.191406 163.433594 301.867188 163.597656 300.542969 163.730469 C 299.214844 163.859375 297.882812 163.957031 296.550781 164.023438 C 295.21875 164.089844 293.886719 164.121094 292.550781 164.121094 C 291.21875 164.121094 289.886719 164.089844 288.550781 164.023438 C 287.21875 163.957031 285.890625 163.859375 284.5625 163.730469 C 283.234375 163.597656 281.910156 163.433594 280.59375 163.238281 C 279.273438 163.042969 277.957031 162.816406 276.648438 162.554688 C 275.34375 162.292969 274.039062 162 272.746094 161.675781 C 271.453125 161.351562 270.167969 160.996094 268.890625 160.609375 C 267.613281 160.222656 266.347656 159.800781 265.09375 159.351562 C 263.835938 158.902344 262.59375 158.421875 261.359375 157.910156 C 260.128906 157.398438 258.90625 156.859375 257.703125 156.289062 C 256.496094 155.71875 255.304688 155.117188 254.128906 154.488281 C 252.953125 153.859375 251.792969 153.199219 250.648438 152.515625 C 249.503906 151.828125 248.375 151.113281 247.265625 150.371094 C 246.160156 149.628906 245.066406 148.859375 243.996094 148.066406 C 242.925781 147.269531 241.875 146.449219 240.84375 145.601562 C 239.8125 144.753906 238.800781 143.882812 237.8125 142.984375 C 236.824219 142.089844 235.859375 141.167969 234.914062 140.222656 C 233.972656 139.28125 233.054688 138.3125 232.15625 137.324219 C 231.261719 136.335938 230.390625 135.324219 229.542969 134.292969 C 228.699219 133.257812 227.878906 132.207031 227.082031 131.132812 C 226.289062 130.0625 225.519531 128.96875 224.777344 127.859375 C 224.039062 126.75 223.324219 125.621094 222.636719 124.476562 C 221.953125 123.332031 221.296875 122.167969 220.667969 120.992188 C 220.039062 119.8125 219.4375 118.621094 218.867188 117.414062 C 218.296875 116.207031 217.757812 114.988281 217.246094 113.753906 C 216.734375 112.519531 216.257812 111.273438 215.804688 110.015625 C 215.355469 108.761719 214.9375 107.492188 214.550781 106.214844 C 214.164062 104.9375 213.808594 103.648438 213.484375 102.355469 C 213.160156 101.058594 212.867188 99.757812 212.609375 98.449219 C 212.347656 97.136719 212.121094 95.824219 211.925781 94.5 C 211.726562 93.179688 211.566406 91.855469 211.433594 90.527344 C 211.304688 89.199219 211.207031 87.867188 211.140625 86.535156 C 211.074219 85.199219 211.042969 83.863281 211.042969 82.53125 C 211.042969 81.195312 211.074219 79.859375 211.140625 78.527344 C 211.207031 77.191406 211.304688 75.859375 211.433594 74.53125 C 211.566406 73.203125 211.726562 71.878906 211.925781 70.558594 C 212.121094 69.238281 212.347656 67.921875 212.609375 66.613281 C 212.867188 65.300781 213.160156 64 213.484375 62.703125 C 213.808594 61.410156 214.164062 60.121094 214.550781 58.84375 C 214.9375 57.566406 215.355469 56.300781 215.804688 55.042969 C 216.257812 53.785156 216.734375 52.539062 217.246094 51.304688 C 217.757812 50.070312 218.296875 48.851562 218.867188 47.644531 C 219.4375 46.4375 220.039062 45.246094 220.667969 44.066406 C 221.296875 42.890625 221.953125 41.726562 222.636719 40.582031 C 223.324219 39.4375 224.039062 38.308594 224.777344 37.199219 C 225.519531 36.089844 226.289062 34.996094 227.082031 33.925781 C 227.878906 32.851562 228.699219 31.800781 229.542969 30.769531 C 230.390625 29.734375 231.261719 28.726562 232.15625 27.734375 C 233.054688 26.746094 233.972656 25.78125 234.914062 24.835938 C 235.859375 23.890625 236.824219 22.96875 237.8125 22.074219 C 238.800781 21.175781 239.8125 20.304688 240.84375 19.457031 C 241.875 18.609375 242.925781 17.789062 243.996094 16.996094 C 245.066406 16.199219 246.160156 15.429688 247.265625 14.6875 C 248.375 13.945312 249.503906 13.230469 250.648438 12.546875 C 251.792969 11.859375 252.953125 11.203125 254.128906 10.570312 C 255.304688 9.941406 256.496094 9.34375 257.703125 8.769531 C 258.90625 8.199219 260.128906 7.660156 261.359375 7.148438 C 262.59375 6.636719 263.835938 6.15625 265.09375 5.707031 C 266.347656 5.257812 267.613281 4.839844 268.890625 4.449219 C 270.167969 4.0625 271.453125 3.707031 272.746094 3.382812 C 274.039062 3.058594 275.34375 2.765625 276.648438 2.503906 C 277.957031 2.246094 279.273438 2.015625 280.59375 1.820312 C 281.910156 1.625 283.234375 1.460938 284.5625 1.332031 C 285.890625 1.199219 287.21875 1.101562 288.550781 1.035156 C 289.886719 0.96875 291.21875 0.9375 292.550781 0.9375 C 293.886719 0.9375 295.21875 0.96875 296.550781 1.035156 C 297.882812 1.101562 299.214844 1.199219 300.542969 1.332031 C 301.867188 1.460938 303.191406 1.625 304.511719 1.820312 C 305.832031 2.015625 307.144531 2.246094 308.453125 2.503906 C 309.761719 2.765625 311.0625 3.058594 312.359375 3.382812 C 313.652344 3.707031 314.9375 4.0625 316.214844 4.449219 C 317.488281 4.839844 318.757812 5.257812 320.011719 5.707031 C 321.269531 6.15625 322.511719 6.636719 323.746094 7.148438 C 324.976562 7.660156 326.195312 8.199219 327.402344 8.769531 C 328.609375 9.34375 329.800781 9.941406 330.976562 10.570312 C 332.152344 11.203125 333.3125 11.859375 334.457031 12.546875 C 335.601562 13.230469 336.726562 13.945312 337.835938 14.6875 C 338.945312 15.429688 340.035156 16.199219 341.109375 16.996094 C 342.179688 17.789062 343.230469 18.609375 344.261719 19.457031 C 345.292969 20.304688 346.300781 21.175781 347.292969 22.074219 C 348.28125 22.96875 349.246094 23.890625 350.1875 24.835938 C 351.132812 25.78125 352.050781 26.746094 352.949219 27.734375 C 353.84375 28.726562 354.714844 29.734375 355.558594 30.769531 C 356.40625 31.800781 357.226562 32.851562 358.023438 33.925781 C 358.816406 34.996094 359.585938 36.089844 360.324219 37.199219 C 361.066406 38.308594 361.78125 39.4375 362.464844 40.582031 C 363.152344 41.726562 363.808594 42.890625 364.4375 44.066406 C 365.066406 45.246094 365.667969 46.4375 366.238281 47.644531 C 366.808594 48.851562 367.347656 50.070312 367.859375 51.304688 C 368.367188 52.539062 368.847656 53.785156 369.296875 55.042969 C 369.746094 56.300781 370.164062 57.566406 370.550781 58.84375 C 370.941406 60.121094 371.296875 61.410156 371.621094 62.703125 C 371.945312 64 372.234375 65.300781 372.496094 66.613281 C 372.757812 67.921875 372.984375 69.238281 373.179688 70.558594 C 373.375 71.878906 373.539062 73.203125 373.671875 74.53125 C 373.800781 75.859375 373.898438 77.191406 373.964844 78.527344 C 374.03125 79.859375 374.0625 81.195312 374.0625 82.53125 Z M 374.0625 82.53125 "/>
</g>
<g clip-path="url(#clip3)" clip-rule="nonzero">
<path style=" stroke:none;fill-rule:nonzero;fill:rgb(100%,100%,100%);fill-opacity:1;" d="M 374.0625 292.84375 C 374.0625 294.179688 374.03125 295.515625 373.964844 296.847656 C 373.898438 298.183594 373.800781 299.515625 373.671875 300.84375 C 373.539062 302.171875 373.375 303.496094 373.179688 304.816406 C 372.984375 306.136719 372.757812 307.453125 372.496094 308.761719 C 372.234375 310.074219 371.945312 311.375 371.621094 312.671875 C 371.296875 313.964844 370.941406 315.253906 370.550781 316.53125 C 370.164062 317.808594 369.746094 319.074219 369.296875 320.332031 C 368.847656 321.589844 368.367188 322.835938 367.859375 324.070312 C 367.347656 325.304688 366.808594 326.523438 366.238281 327.730469 C 365.667969 328.9375 365.066406 330.128906 364.4375 331.308594 C 363.808594 332.484375 363.152344 333.648438 362.464844 334.792969 C 361.78125 335.9375 361.066406 337.066406 360.324219 338.175781 C 359.585938 339.285156 358.816406 340.378906 358.023438 341.449219 C 357.226562 342.523438 356.40625 343.574219 355.558594 344.605469 C 354.714844 345.640625 353.84375 346.648438 352.949219 347.640625 C 352.050781 348.628906 351.132812 349.59375 350.1875 350.539062 C 349.246094 351.484375 348.28125 352.40625 347.292969 353.300781 C 346.300781 354.199219 345.292969 355.070312 344.261719 355.917969 C 343.230469 356.765625 342.179688 357.585938 341.109375 358.378906 C 340.035156 359.175781 338.945312 359.945312 337.835938 360.6875 C 336.726562 361.429688 335.601562 362.144531 334.457031 362.828125 C 333.3125 363.515625 332.152344 364.171875 330.976562 364.804688 C 329.800781 365.433594 328.609375 366.03125 327.402344 366.605469 C 326.195312 367.175781 324.976562 367.714844 323.746094 368.226562 C 322.511719 368.738281 321.269531 369.21875 320.011719 369.667969 C 318.757812 370.117188 317.488281 370.535156 316.214844 370.925781 C 314.9375 371.3125 313.652344 371.667969 312.359375 371.992188 C 311.0625 372.316406 309.761719 372.609375 308.453125 372.871094 C 307.144531 373.128906 305.832031 373.359375 304.511719 373.554688 C 303.191406 373.75 301.867188 373.914062 300.542969 374.042969 C 299.214844 374.175781 297.882812 374.273438 296.550781 374.339844 C 295.21875 374.40625 293.886719 374.4375 292.550781 374.4375 C 291.21875 374.4375 289.886719 374.40625 288.550781 374.339844 C 287.21875 374.273438 285.890625 374.175781 284.5625 374.042969 C 283.234375 373.914062 281.910156 373.75 280.59375 373.554688 C 279.273438 373.359375 277.957031 373.128906 276.648438 372.871094 C 275.34375 372.609375 274.039062 372.316406 272.746094 371.992188 C 271.453125 371.667969 270.167969 371.3125 268.890625 370.925781 C 267.613281 370.535156 266.347656 370.117188 265.09375 369.667969 C 263.835938 369.21875 262.59375 368.738281 261.359375 368.226562 C 260.128906 367.714844 258.90625 367.175781 257.703125 366.605469 C 256.496094 366.03125 255.304688 365.433594 254.128906 364.804688 C 252.953125 364.171875 251.792969 363.515625 250.648438 362.828125 C 249.503906 362.144531 248.375 361.429688 247.265625 360.6875 C 246.160156 359.945312 245.066406 359.175781 243.996094 358.378906 C 242.925781 357.585938 241.875 356.765625 240.84375 355.917969 C 239.8125 355.070312 238.800781 354.199219 237.8125 353.300781 C 236.824219 352.40625 235.859375 351.484375 234.914062 350.539062 C 233.972656 349.59375 233.054688 348.628906 232.15625 347.640625 C 231.261719 346.648438 230.390625 345.640625 229.542969 344.605469 C 228.699219 343.574219 227.878906 342.523438 227.082031 341.449219 C 226.289062 340.378906 225.519531 339.285156 224.777344 338.175781 C 224.039062 337.066406 223.324219 335.9375 222.636719 334.792969 C 221.953125 333.648438 221.296875 332.484375 220.667969 331.308594 C 220.039062 330.128906 219.4375 328.9375 218.867188 327.730469 C 218.296875 326.523438 217.757812 325.304688 217.246094 324.070312 C 216.734375 322.835938 216.257812 321.589844 215.804688 320.332031 C 215.355469 319.074219 214.9375 317.808594 214.550781 316.53125 C 214.164062 315.253906 213.808594 313.964844 213.484375 312.671875 C 213.160156 311.375 212.867188 310.074219 212.609375 308.761719 C 212.347656 307.453125 212.121094 306.136719 211.925781 304.816406 C 211.726562 303.496094 211.566406 302.171875 211.433594 300.84375 C 211.304688 299.515625 211.207031 298.183594 211.140625 296.847656 C 211.074219 295.515625 211.042969 294.179688 211.042969 292.84375 C 211.042969 291.511719 211.074219 290.175781 211.140625 288.839844 C 211.207031 287.507812 211.304688 286.175781 211.433594 284.847656 C 211.566406 283.519531 211.726562 282.195312 211.925781 280.875 C 212.121094 279.550781 212.347656 278.238281 212.609375 276.925781 C 212.867188 275.617188 213.160156 274.316406 213.484375 273.019531 C 213.808594 271.722656 214.164062 270.4375 214.550781 269.160156 C 214.9375 267.882812 215.355469 266.613281 215.804688 265.359375 C 216.257812 264.101562 216.734375 262.855469 217.246094 261.621094 C 217.757812 260.386719 218.296875 259.167969 218.867188 257.960938 C 219.4375 256.753906 220.039062 255.558594 220.667969 254.382812 C 221.296875 253.207031 221.953125 252.042969 222.636719 250.898438 C 223.324219 249.753906 224.039062 248.625 224.777344 247.515625 C 225.519531 246.40625 226.289062 245.3125 227.082031 244.242188 C 227.878906 243.167969 228.699219 242.117188 229.542969 241.082031 C 230.390625 240.050781 231.261719 239.039062 232.15625 238.050781 C 233.054688 237.0625 233.972656 236.09375 234.914062 235.152344 C 235.859375 234.207031 236.824219 233.285156 237.8125 232.390625 C 238.800781 231.492188 239.8125 230.621094 240.84375 229.773438 C 241.875 228.925781 242.925781 228.105469 243.996094 227.308594 C 245.066406 226.515625 246.160156 225.746094 247.265625 225.003906 C 248.375 224.261719 249.503906 223.546875 250.648438 222.859375 C 251.792969 222.175781 252.953125 221.515625 254.128906 220.886719 C 255.304688 220.257812 256.496094 219.65625 257.703125 219.085938 C 258.90625 218.515625 260.128906 217.976562 261.359375 217.464844 C 262.59375 216.953125 263.835938 216.472656 265.09375 216.023438 C 266.347656 215.574219 267.613281 215.152344 268.890625 214.765625 C 270.167969 214.378906 271.453125 214.023438 272.746094 213.699219 C 274.039062 213.375 275.34375 213.082031 276.648438 212.820312 C 277.957031 212.558594 279.273438 212.332031 280.59375 212.136719 C 281.910156 211.941406 283.234375 211.777344 284.5625 211.644531 C 285.890625 211.515625 287.21875 211.417969 288.550781 211.351562 C 289.886719 211.285156 291.21875 211.253906 292.550781 211.253906 C 293.886719 211.253906 295.21875 211.285156 296.550781 211.351562 C 297.882812 211.417969 299.214844 211.515625 300.542969 211.644531 C 301.867188 211.777344 303.191406 211.941406 304.511719 212.136719 C 305.832031 212.332031 307.144531 212.558594 308.453125 212.820312 C 309.761719 213.082031 311.0625 213.375 312.359375 213.699219 C 313.652344 214.023438 314.9375 214.378906 316.214844 214.765625 C 317.488281 215.152344 318.757812 215.574219 320.011719 216.023438 C 321.269531 216.472656 322.511719 216.953125 323.746094 217.464844 C 324.976562 217.976562 326.195312 218.515625 327.402344 219.085938 C 328.609375 219.65625 329.800781 220.257812 330.976562 220.886719 C 332.152344 221.515625 333.3125 222.175781 334.457031 222.859375 C 335.601562 223.546875 336.726562 224.261719 337.835938 225.003906 C 338.945312 225.746094 340.035156 226.515625 341.109375 227.308594 C 342.179688 228.105469 343.230469 228.925781 344.261719 229.773438 C 345.292969 230.621094 346.300781 231.492188 347.292969 232.390625 C 348.28125 233.285156 349.246094 234.207031 350.1875 235.152344 C 351.132812 236.09375 352.050781 237.0625 352.949219 238.050781 C 353.84375 239.039062 354.714844 240.050781 355.558594 241.082031 C 356.40625 242.117188 357.226562 243.167969 358.023438 244.242188 C 358.816406 245.3125 359.585938 246.40625 360.324219 247.515625 C 361.066406 248.625 361.78125 249.753906 362.464844 250.898438 C 363.152344 252.042969 363.808594 253.207031 364.4375 254.382812 C 365.066406 255.558594 365.667969 256.753906 366.238281 257.960938 C 366.808594 259.167969 367.347656 260.386719 367.859375 261.621094 C 368.367188 262.855469 368.847656 264.101562 369.296875 265.359375 C 369.746094 266.613281 370.164062 267.882812 370.550781 269.160156 C 370.941406 270.4375 371.296875 271.722656 371.621094 273.019531 C 371.945312 274.316406 372.234375 275.617188 372.496094 276.925781 C 372.757812 278.238281 372.984375 279.550781 373.179688 280.875 C 373.375 282.195312 373.539062 283.519531 373.671875 284.847656 C 373.800781 286.175781 373.898438 287.507812 373.964844 288.839844 C 374.03125 290.175781 374.0625 291.511719 374.0625 292.84375 Z M 374.0625 292.84375 "/>
</g>
</g>
</svg>
